<svg id="svg" version="1.1" xmlns="http://www.w3.org/2000/svg" xmlns:xlink="http://www.w3.org/1999/xlink" width="400" height="207.6923076923077" viewBox="0, 0, 400,207.6923076923077"><g id="svgg"><path id="path0" d="M160.865 45.659 C 158.715 46.162,157.059 47.081,155.145 48.833 L 154.039 49.846 151.367 49.819 C 140.317 49.707,126.870 54.924,117.981 62.771 C 116.712 63.891,115.457 64.859,115.192 64.921 C 109.262 66.314,105.885 69.692,107.380 72.736 C 107.792 73.574,109.170 75.192,109.472 75.192 C 110.250 75.192,110.359 75.771,109.812 76.985 C 108.051 80.883,108.066 87.410,109.848 92.500 C 111.763 97.969,115.409 102.668,121.082 106.978 C 128.066 112.284,129.277 115.408,127.884 124.519 C 127.113 129.565,126.877 132.310,126.980 135.048 C 127.034 136.502,127.016 137.692,126.938 137.692 C 126.861 137.692,126.265 137.476,125.614 137.212 C 124.041 136.573,123.224 136.580,122.706 137.237 C 121.433 138.856,122.952 141.162,127.124 143.948 C 128.152 144.635,129.328 145.568,129.737 146.023 C 130.686 147.078,132.580 149.400,132.650 149.595 C 132.679 149.677,131.812 150.439,130.724 151.288 C 127.495 153.809,126.952 154.572,127.184 156.264 L 127.300 157.115 125.814 157.120 C 121.917 157.133,113.076 157.512,110.761 157.765 C 109.337 157.921,107.611 158.103,106.923 158.169 C 102.208 158.623,98.182 160.138,98.307 161.410 C 98.475 163.125,100.939 163.575,111.058 163.737 C 114.337 163.790,119.962 164.006,123.558 164.218 C 145.480 165.507,161.416 165.791,232.148 166.148 C 277.247 166.376,291.577 166.120,302.212 164.895 C 308.888 164.127,310.597 163.456,309.932 161.863 C 309.020 159.682,303.724 158.683,289.904 158.084 C 287.365 157.974,284.924 157.836,284.478 157.777 L 283.667 157.671 283.688 146.864 C 283.699 140.921,283.594 130.082,283.454 122.779 C 283.313 115.475,283.250 109.367,283.312 109.204 C 283.484 108.755,287.349 108.655,304.555 108.654 C 313.607 108.654,319.782 108.581,320.072 108.471 C 320.980 108.125,321.060 107.711,321.033 103.462 C 320.939 88.243,317.382 72.169,313.146 67.817 C 310.618 65.218,309.793 65.125,288.462 65.027 C 281.111 64.994,275.053 64.924,275.000 64.872 C 274.864 64.738,274.690 60.187,274.813 59.990 C 274.869 59.900,276.600 59.692,278.659 59.528 C 283.178 59.169,283.441 59.119,283.640 58.588 C 284.162 57.189,284.061 53.127,283.489 52.554 C 282.941 52.007,272.275 52.456,271.678 53.052 C 271.505 53.226,271.427 54.842,271.386 59.153 C 271.344 63.525,271.271 65.038,271.098 65.094 C 270.970 65.136,266.928 65.262,262.115 65.373 C 252.521 65.596,251.578 65.700,249.598 66.756 C 245.398 68.994,243.113 76.206,242.964 87.692 C 242.928 90.495,242.856 96.233,242.805 100.443 C 242.699 109.119,242.769 108.579,241.622 109.519 C 239.452 111.298,229.884 122.039,228.044 124.762 C 223.217 131.906,225.251 134.486,232.788 130.781 C 238.599 127.925,247.991 120.750,255.496 113.432 C 258.463 110.539,259.331 109.798,259.929 109.649 C 260.636 109.473,276.131 108.952,276.279 109.100 C 276.505 109.325,276.385 157.549,276.159 157.689 C 276.025 157.772,269.413 157.849,261.467 157.860 C 253.521 157.870,240.918 157.979,233.462 158.100 C 219.049 158.336,183.585 158.224,170.000 157.900 C 165.822 157.801,157.276 157.611,151.010 157.478 C 144.743 157.345,139.615 157.178,139.615 157.105 C 139.615 156.869,142.010 155.192,142.348 155.192 C 142.529 155.192,143.395 155.358,144.271 155.561 C 155.223 158.092,165.851 156.605,175.445 151.201 L 177.332 150.138 179.099 150.581 C 185.118 152.090,191.046 149.682,190.728 145.856 C 190.578 144.042,189.750 143.275,187.295 142.678 L 185.647 142.277 187.207 139.167 C 190.278 133.044,191.465 127.698,191.847 118.269 C 191.987 114.797,192.024 114.680,193.048 114.506 C 196.377 113.940,229.246 104.236,231.209 103.239 C 232.309 102.681,232.723 101.881,232.635 100.481 C 232.539 98.943,230.141 88.967,228.683 84.038 C 228.042 81.870,227.045 78.279,226.468 76.058 C 224.131 67.058,224.128 67.057,210.096 70.476 C 203.936 71.977,189.335 76.224,183.706 78.152 L 182.315 78.628 181.912 78.115 C 181.599 77.717,181.542 77.472,181.656 77.022 C 182.029 75.561,181.875 74.997,180.501 72.788 C 179.252 70.782,178.788 70.066,178.378 69.510 C 178.253 69.342,178.386 69.052,178.810 68.569 C 179.708 67.546,179.440 66.572,177.764 64.768 C 176.804 63.734,176.659 62.711,177.214 60.883 C 179.547 53.191,169.333 43.678,160.865 45.659 M166.853 46.752 C 172.868 48.608,177.032 54.094,176.670 59.685 C 176.548 61.571,176.495 61.624,175.047 61.325 C 174.040 61.117,173.777 61.128,173.043 61.408 C 171.799 61.883,171.869 61.921,169.250 59.373 C 165.046 55.282,161.169 52.677,156.291 50.666 L 154.793 50.049 155.789 49.153 C 158.812 46.436,162.930 45.542,166.853 46.752 M154.327 51.003 C 157.500 51.614,164.726 56.226,169.710 60.821 L 171.054 62.060 169.968 63.234 C 168.649 64.658,168.337 65.455,168.634 66.637 C 168.751 67.100,168.846 68.221,168.846 69.130 C 168.846 72.277,170.274 73.995,172.215 73.184 C 173.353 72.709,173.469 72.772,175.538 74.986 C 177.847 77.457,179.059 78.205,180.389 77.980 C 181.203 77.842,181.184 77.829,181.404 78.711 C 181.425 78.795,180.620 79.152,179.615 79.505 C 174.761 81.210,171.384 82.788,170.787 83.633 C 169.948 84.821,170.074 85.776,172.004 92.827 C 172.700 95.371,173.269 97.551,173.269 97.671 C 173.269 98.038,172.115 98.629,170.192 99.246 C 168.206 99.885,167.822 100.107,168.352 100.310 C 168.969 100.547,172.450 99.403,175.204 98.058 C 178.438 96.479,179.209 96.218,179.766 96.516 C 180.382 96.846,180.468 97.424,180.015 98.191 C 179.546 98.986,179.515 99.231,179.887 99.231 C 180.223 99.231,181.154 98.151,181.154 97.760 C 181.154 97.214,181.824 97.574,181.890 98.155 C 182.329 101.982,171.722 108.123,168.462 105.930 C 167.199 105.081,166.635 103.250,167.109 101.537 L 167.295 100.865 166.917 101.319 C 165.588 102.915,167.367 106.837,169.586 107.204 C 170.737 107.395,173.870 106.747,175.962 105.887 C 176.194 105.791,176.375 106.284,176.894 108.413 C 178.924 116.753,179.754 117.345,187.269 115.821 C 189.403 115.388,191.028 115.144,191.091 115.246 C 191.395 115.737,190.620 124.699,189.985 128.051 C 188.919 133.672,185.875 141.463,184.500 142.089 C 183.972 142.330,181.891 142.125,179.681 141.615 C 177.507 141.113,176.145 141.654,174.785 143.558 C 174.167 144.424,173.525 146.716,173.752 147.248 C 173.862 147.508,173.960 147.327,174.136 146.538 C 174.936 142.954,176.856 141.599,180.021 142.386 C 181.120 142.659,183.056 142.971,184.324 143.080 C 187.066 143.316,189.615 144.004,189.615 144.507 C 189.615 144.549,189.664 144.710,189.723 144.863 C 189.810 145.091,189.522 145.159,188.180 145.230 C 185.569 145.367,185.360 146.145,187.933 146.151 C 190.073 146.156,190.506 146.856,189.183 148.170 C 187.036 150.301,182.312 150.622,176.852 149.006 C 175.808 148.697,174.910 148.488,174.857 148.541 C 174.636 148.761,175.035 149.263,175.583 149.454 C 176.481 149.767,176.274 149.927,173.115 151.360 C 163.874 155.552,155.581 156.510,145.769 154.521 C 131.802 151.689,126.418 143.231,128.630 127.595 C 130.476 114.547,129.748 112.295,121.731 106.253 C 111.323 98.410,107.072 87.995,110.230 78.077 C 110.878 76.042,110.799 76.103,111.982 76.743 C 113.438 77.532,115.343 78.218,117.582 78.761 C 121.470 79.703,121.292 79.279,117.212 77.875 C 108.009 74.709,105.508 71.039,110.434 67.928 C 113.112 66.237,115.547 65.580,119.175 65.571 C 121.824 65.564,121.790 65.253,119.114 65.009 C 117.079 64.823,117.015 64.749,118.077 63.814 C 127.975 55.097,144.764 49.163,154.327 51.003 M147.418 52.691 C 141.960 53.676,136.380 58.247,134.894 62.951 C 131.413 73.972,143.576 84.543,154.505 79.994 C 162.910 76.494,166.170 68.306,162.288 60.445 C 159.743 55.293,152.868 51.708,147.418 52.691 M283.153 53.189 C 283.527 54.164,283.184 58.212,282.715 58.352 C 282.387 58.450,275.336 59.003,273.365 59.086 L 272.212 59.135 272.084 56.346 C 272.014 54.813,272.014 53.499,272.084 53.428 C 272.587 52.913,282.961 52.689,283.153 53.189 M151.543 53.541 C 162.287 55.458,167.177 68.068,160.009 75.371 C 155.561 79.903,149.206 81.718,144.575 79.780 C 133.640 75.202,131.822 62.748,141.155 56.356 C 145.052 53.687,147.954 52.900,151.543 53.541 M172.586 56.252 C 171.016 57.048,170.966 59.161,172.489 60.442 C 173.788 61.535,175.516 60.769,175.714 59.011 C 175.942 56.992,174.185 55.442,172.586 56.252 M175.295 58.868 C 175.553 59.681,174.415 60.126,174.110 59.331 C 173.926 58.851,174.187 58.462,174.693 58.462 C 175.006 58.462,175.210 58.599,175.295 58.868 M274.122 70.865 L 274.129 81.635 273.516 81.694 C 272.014 81.840,272.115 82.627,272.115 70.795 C 272.115 59.245,272.040 59.959,273.252 60.039 L 274.114 60.096 274.122 70.865 M177.856 65.686 C 179.382 67.420,179.042 68.461,176.950 68.462 C 175.497 68.463,174.853 68.886,174.073 70.349 C 172.512 73.277,170.495 73.540,169.716 70.916 C 169.085 68.791,169.290 68.369,170.962 68.356 C 173.239 68.339,175.568 67.130,176.438 65.514 C 176.916 64.626,176.924 64.627,177.856 65.686 M156.388 65.501 C 154.104 66.666,154.346 70.127,156.757 70.776 C 158.368 71.210,160.311 70.052,160.514 68.536 C 160.804 66.374,158.296 64.529,156.388 65.501 M304.327 66.352 C 309.667 66.609,310.020 66.712,311.838 68.539 C 314.467 71.182,316.873 78.133,318.371 87.414 C 318.988 91.235,320.133 106.040,319.887 107.019 L 319.776 107.459 300.994 107.556 C 289.427 107.615,278.924 107.770,273.654 107.960 C 268.947 108.129,263.885 108.290,262.404 108.317 L 259.712 108.365 259.587 99.327 C 259.294 78.013,257.368 68.821,252.915 67.486 C 248.755 66.240,245.534 72.228,243.909 84.231 L 243.558 86.827 243.497 85.385 C 243.227 78.959,246.390 69.588,249.500 67.601 C 251.085 66.588,251.765 66.504,259.204 66.402 C 268.246 66.278,268.365 66.306,269.479 68.793 C 271.253 72.756,272.062 81.050,270.848 82.828 C 269.769 84.408,270.705 86.677,272.581 87.029 C 275.312 87.541,277.109 84.938,275.591 82.668 L 274.996 81.779 275.046 74.014 L 275.096 66.250 281.154 66.135 C 288.702 65.991,298.770 66.086,304.327 66.352 M159.311 67.753 C 159.720 68.052,159.657 68.622,159.183 68.921 C 158.516 69.340,157.766 68.395,158.277 67.779 C 158.564 67.433,158.863 67.425,159.311 67.753 M222.885 69.332 C 223.664 69.727,224.011 70.235,224.520 71.732 C 225.399 74.319,225.471 74.179,220.544 79.449 C 216.004 84.304,214.000 86.501,210.303 90.673 C 202.961 98.960,203.730 98.774,190.288 95.506 C 180.180 93.049,174.312 91.305,172.785 90.304 C 171.430 89.416,170.719 84.873,171.782 83.899 C 174.001 81.866,196.560 74.632,213.942 70.380 C 220.610 68.749,221.522 68.642,222.885 69.332 M177.428 69.286 C 178.238 69.748,179.615 71.836,179.615 72.602 C 179.615 73.604,177.926 71.935,176.348 69.375 C 176.093 68.962,176.765 68.907,177.428 69.286 M256.545 69.136 C 256.541 69.243,257.009 70.725,257.584 72.428 C 259.760 78.877,260.667 85.049,260.903 95.000 C 260.997 98.980,261.081 100.270,261.208 99.712 C 261.869 96.806,260.854 82.437,259.613 77.129 C 258.698 73.219,256.589 67.724,256.545 69.136 M177.000 71.320 C 178.296 73.061,178.500 73.578,177.969 73.781 C 177.310 74.034,174.558 70.437,175.002 69.902 C 175.428 69.389,175.712 69.591,177.000 71.320 M116.754 70.013 C 112.654 70.828,114.262 74.615,118.707 74.615 C 120.671 74.615,121.073 74.399,120.885 73.445 C 120.813 73.084,120.688 72.384,120.606 71.891 C 120.342 70.292,118.896 69.588,116.754 70.013 M311.732 70.917 C 311.731 71.051,312.157 72.047,312.677 73.129 C 315.049 78.059,316.353 83.227,317.115 90.721 C 317.835 97.804,318.030 99.262,318.290 99.514 C 318.434 99.653,318.461 99.400,318.382 98.654 C 318.320 98.072,318.093 95.649,317.877 93.269 C 317.033 83.956,315.703 78.004,313.430 73.365 C 312.670 71.816,311.733 70.465,311.732 70.917 M181.116 75.986 C 181.191 76.879,180.776 77.309,179.842 77.305 C 178.442 77.299,178.373 76.748,179.638 75.684 C 180.485 74.971,181.041 75.085,181.116 75.986 M225.860 76.875 C 226.037 77.695,226.661 80.226,227.247 82.500 C 230.939 96.841,231.869 100.962,231.412 100.962 C 231.342 100.962,230.498 100.454,229.537 99.833 C 226.070 97.595,218.930 93.698,218.706 93.922 C 218.524 94.104,218.987 94.415,223.365 97.052 C 228.834 100.346,230.979 101.740,230.864 101.925 C 230.679 102.224,227.950 103.246,224.712 104.230 C 196.144 112.903,181.731 116.628,181.731 115.338 C 181.731 115.223,182.851 112.995,184.219 110.385 C 187.001 105.081,187.695 103.602,187.685 103.005 C 187.672 102.192,186.817 103.624,183.841 109.445 C 180.563 115.858,180.685 115.727,179.677 113.923 C 179.347 113.331,177.602 107.579,177.175 105.672 C 177.108 105.375,177.379 105.073,178.357 104.355 C 181.232 102.244,183.395 98.229,182.188 97.243 C 179.511 95.055,179.146 95.021,175.925 96.648 C 174.462 97.388,174.242 97.452,174.157 97.160 C 172.835 92.642,172.475 91.307,172.556 91.226 C 172.610 91.172,173.809 91.561,175.221 92.089 C 178.641 93.369,182.434 94.451,191.229 96.654 L 198.558 98.490 200.769 98.408 C 204.824 98.257,205.579 97.725,212.041 90.464 C 214.481 87.723,218.143 83.663,220.179 81.442 C 222.215 79.221,224.198 76.953,224.585 76.402 C 225.487 75.117,225.480 75.114,225.860 76.875 M274.420 82.837 C 276.142 83.700,275.900 86.003,274.028 86.564 C 272.015 87.167,270.342 85.410,271.252 83.649 C 271.815 82.561,273.175 82.212,274.420 82.837 M282.033 109.060 C 282.105 109.178,282.185 110.714,282.209 112.474 C 282.234 114.233,282.363 119.784,282.497 124.808 C 282.659 130.906,282.698 138.161,282.614 146.635 L 282.489 159.327 282.062 159.659 C 280.843 160.607,278.659 160.774,277.864 159.980 C 277.510 159.626,277.500 158.888,277.500 134.334 L 277.500 109.052 279.471 108.990 C 280.555 108.955,281.545 108.909,281.671 108.887 C 281.797 108.864,281.960 108.942,282.033 109.060 M249.615 109.438 C 252.841 109.516,256.039 109.587,256.720 109.597 L 257.960 109.615 257.297 110.309 C 254.718 113.007,246.540 120.024,241.772 123.631 C 232.832 130.392,225.773 133.472,226.456 130.313 C 227.014 127.735,229.038 124.981,237.018 115.945 C 239.874 112.710,242.412 109.825,242.657 109.535 C 242.971 109.162,243.197 109.049,243.426 109.151 C 243.604 109.231,246.389 109.360,249.615 109.438 M125.912 138.068 C 127.265 138.708,127.294 138.753,128.272 141.794 C 129.004 144.065,128.995 144.080,127.463 143.153 C 122.856 140.364,121.523 135.992,125.912 138.068 M135.598 151.769 C 136.721 152.555,138.388 153.536,139.303 153.948 C 141.228 154.815,141.234 154.855,139.626 155.833 C 136.357 157.819,131.987 158.815,130.096 158.004 L 129.519 157.757 130.288 157.509 C 131.348 157.167,132.308 156.562,132.308 156.234 C 132.308 155.873,132.124 155.889,131.127 156.342 C 128.961 157.325,127.244 156.341,128.249 154.693 C 128.768 153.841,133.032 150.158,133.365 150.272 C 133.471 150.309,134.476 150.982,135.598 151.769 " stroke="none" fill="#2d3d4d" fill-rule="evenodd"></path><path id="path1" d="M210.769 21.174 C 169.057 23.509,137.966 37.005,118.669 61.154 C 116.546 63.810,116.364 64.242,118.027 62.668 C 125.756 55.357,139.916 49.814,151.072 49.734 L 154.163 49.712 155.451 48.531 C 159.768 44.576,165.903 44.333,171.247 47.907 C 175.738 50.911,178.590 57.246,177.212 61.154 C 176.667 62.697,176.987 64.270,177.977 64.919 C 179.279 65.772,179.750 67.810,178.840 68.659 L 178.258 69.203 178.823 70.034 C 181.592 74.109,182.321 75.821,181.744 76.899 C 181.564 77.234,181.587 77.426,181.860 77.888 C 182.275 78.592,182.235 78.592,184.339 77.879 C 196.208 73.856,217.344 68.269,220.696 68.269 C 223.915 68.269,224.973 69.580,226.331 75.252 C 226.640 76.541,227.556 79.889,228.368 82.692 C 229.179 85.495,230.346 89.909,230.962 92.500 C 231.578 95.091,232.262 97.958,232.483 98.871 C 233.055 101.238,232.741 102.463,231.363 103.236 C 229.724 104.157,196.509 113.980,193.227 114.514 C 192.021 114.711,191.997 114.786,191.863 118.781 C 191.548 128.214,189.748 135.463,186.349 140.986 C 185.592 142.217,185.588 142.208,186.875 142.483 C 189.451 143.034,190.628 144.064,190.881 145.989 C 191.312 149.257,185.287 152.008,180.192 150.870 C 177.282 150.220,177.348 150.212,175.199 151.429 C 166.109 156.576,154.682 158.148,144.419 155.663 C 143.350 155.404,142.414 155.192,142.338 155.192 C 142.263 155.192,141.613 155.616,140.895 156.133 L 139.588 157.073 142.727 157.191 C 145.759 157.305,151.877 157.442,174.712 157.911 C 188.550 158.196,219.273 158.225,246.549 157.981 L 268.002 157.788 269.818 156.278 C 270.817 155.447,272.694 153.805,273.989 152.629 L 276.343 150.490 276.297 129.860 L 276.250 109.231 273.269 109.237 C 261.079 109.259,259.147 109.535,257.560 111.476 C 252.453 117.725,235.475 130.396,229.932 132.096 C 221.070 134.813,226.000 124.657,240.264 110.807 C 242.942 108.207,242.733 108.893,242.668 102.916 C 242.377 76.364,244.466 67.749,251.649 65.868 C 252.946 65.529,260.293 65.204,266.837 65.197 C 269.723 65.194,270.951 65.126,271.115 64.962 C 271.284 64.793,271.347 63.208,271.349 59.048 C 271.351 55.923,271.427 53.248,271.518 53.103 C 271.948 52.424,283.105 51.935,283.634 52.572 C 283.994 53.006,284.158 56.937,283.862 58.026 C 283.570 59.100,283.387 59.173,280.368 59.430 C 278.949 59.551,277.139 59.707,276.346 59.777 L 274.904 59.904 274.933 62.369 C 274.949 63.725,274.998 64.870,275.042 64.913 C 275.140 65.011,301.752 65.042,301.850 64.945 C 301.978 64.817,300.328 60.910,299.233 58.745 C 288.950 38.414,267.341 24.659,240.962 21.651 C 235.200 20.995,218.652 20.733,210.769 21.174 M160.502 46.639 C 159.126 47.016,157.366 47.943,156.106 48.953 C 154.799 50.000,154.788 50.040,155.721 50.370 C 160.088 51.911,165.474 55.506,169.788 59.760 C 170.887 60.844,171.850 61.731,171.928 61.731 C 172.005 61.731,172.400 61.592,172.806 61.423 L 173.543 61.115 172.944 60.863 C 170.575 59.867,170.975 55.962,173.445 55.962 C 176.025 55.962,176.713 60.833,174.155 60.986 C 173.932 60.999,174.096 61.072,174.519 61.149 C 174.942 61.226,175.518 61.352,175.799 61.430 C 176.468 61.615,176.574 61.277,176.571 58.976 C 176.560 51.243,167.912 44.604,160.502 46.639 M274.904 53.108 C 271.814 53.355,272.047 53.094,272.099 56.259 C 272.123 57.733,272.184 58.978,272.233 59.028 C 272.332 59.127,281.715 58.490,282.530 58.329 C 283.119 58.213,283.542 54.559,283.099 53.413 L 282.894 52.885 279.957 52.912 C 278.341 52.927,276.067 53.015,274.904 53.108 M146.538 53.763 C 137.775 56.050,132.855 64.867,136.350 72.019 C 141.141 81.821,152.483 83.261,160.207 75.049 C 168.550 66.179,158.562 50.625,146.538 53.763 M174.251 58.726 C 173.934 59.108,174.199 59.615,174.716 59.615 C 175.228 59.615,175.409 59.283,175.160 58.798 C 174.952 58.395,174.552 58.363,174.251 58.726 M272.353 60.128 C 272.101 60.230,271.990 80.604,272.238 81.250 C 272.313 81.446,272.620 81.538,273.194 81.538 L 274.038 81.538 274.038 70.769 L 274.038 60.000 273.317 60.015 C 272.921 60.024,272.487 60.074,272.353 60.128 M158.808 65.464 C 161.085 66.654,161.176 69.496,158.970 70.563 C 156.883 71.574,154.763 70.445,154.763 68.323 C 154.763 65.982,156.904 64.469,158.808 65.464 M158.200 67.981 C 157.969 68.582,158.524 69.150,159.120 68.921 C 159.842 68.644,159.630 67.692,158.846 67.692 C 158.547 67.692,158.261 67.820,158.200 67.981 M176.346 69.121 C 176.346 69.377,178.760 72.685,179.023 72.789 C 179.886 73.131,179.063 70.836,177.938 69.767 C 177.436 69.289,176.346 68.847,176.346 69.121 M218.173 69.418 C 217.433 69.608,215.183 70.159,213.173 70.643 C 197.164 74.498,172.836 82.382,171.627 84.107 C 170.805 85.282,171.732 89.619,172.966 90.370 C 175.045 91.635,197.929 97.692,200.630 97.692 C 203.390 97.692,204.971 96.563,209.779 91.154 C 213.475 86.997,215.832 84.412,220.215 79.712 C 225.486 74.059,225.267 74.452,224.519 72.001 C 223.624 69.065,222.050 68.425,218.173 69.418 M175.128 69.744 C 174.791 70.081,175.809 71.942,177.082 73.317 C 178.017 74.327,178.603 73.672,177.797 72.518 C 176.218 70.257,175.432 69.439,175.128 69.744 M108.096 78.076 C 104.949 84.612,100.005 99.263,100.000 102.067 C 100.000 102.252,100.898 102.308,103.852 102.308 C 108.318 102.308,108.283 102.291,107.198 103.925 C 106.805 104.516,106.475 105.017,106.463 105.037 C 106.452 105.057,104.842 105.122,102.886 105.181 L 99.329 105.288 99.097 106.538 C 98.667 108.848,98.443 108.654,101.544 108.654 C 104.636 108.654,104.644 108.659,104.143 110.168 C 103.750 111.351,103.765 111.346,100.776 111.346 L 98.314 111.346 98.184 112.837 C 98.112 113.656,98.009 114.478,97.956 114.663 C 97.867 114.972,98.070 115.000,100.378 115.000 C 103.250 115.000,103.203 114.971,102.948 116.576 L 102.785 117.596 100.259 117.650 L 97.732 117.703 97.585 120.534 C 96.932 133.141,100.129 146.552,106.078 156.171 C 107.393 158.295,107.053 158.156,110.036 157.791 C 113.053 157.423,119.158 157.127,123.915 157.120 C 127.106 157.116,127.340 157.092,127.219 156.779 C 126.639 155.282,127.172 154.073,129.094 152.526 C 129.835 151.930,130.956 151.021,131.585 150.507 L 132.728 149.572 132.074 148.872 C 131.715 148.488,131.090 147.740,130.685 147.212 C 129.675 145.891,128.835 145.150,126.923 143.895 C 122.755 141.159,121.189 138.475,122.914 137.024 C 123.648 136.406,123.876 136.414,125.577 137.115 C 126.346 137.433,126.986 137.692,126.998 137.692 C 127.009 137.692,127.024 135.810,127.030 133.510 C 127.039 129.874,127.110 128.899,127.577 126.058 C 129.339 115.318,128.382 112.635,120.673 106.706 C 112.488 100.411,108.462 93.030,108.462 84.319 C 108.462 81.003,109.178 77.411,110.030 76.452 C 110.308 76.139,110.208 75.599,109.835 75.399 C 109.515 75.228,109.331 75.511,108.096 78.076 M224.778 76.278 C 224.409 76.791,222.247 79.251,219.974 81.744 C 217.701 84.238,214.152 88.175,212.088 90.494 C 203.693 99.927,203.871 99.877,190.550 96.536 C 182.281 94.462,177.738 93.153,174.671 91.964 C 173.592 91.545,172.671 91.239,172.626 91.284 C 172.554 91.356,174.187 97.127,174.318 97.264 C 174.346 97.294,175.193 96.919,176.200 96.432 C 179.029 95.064,179.473 95.079,181.538 96.611 C 183.774 98.269,181.909 101.962,177.144 105.312 C 177.106 105.339,177.255 105.906,177.474 106.574 C 177.693 107.242,178.185 108.952,178.568 110.375 C 179.453 113.669,180.114 115.000,180.865 115.000 C 180.900 115.000,182.157 112.599,183.659 109.663 C 186.440 104.228,187.217 102.879,187.644 102.739 C 188.253 102.539,187.188 104.882,183.489 111.885 C 182.522 113.714,181.731 115.294,181.731 115.394 C 181.731 116.442,197.083 112.517,219.071 105.849 C 227.209 103.381,230.167 102.395,230.549 102.025 C 230.878 101.707,230.211 101.249,223.984 97.518 C 219.218 94.663,218.071 93.863,218.724 93.852 C 219.363 93.841,228.806 99.080,230.697 100.495 C 231.334 100.971,231.538 100.934,231.538 100.342 C 231.538 99.873,229.358 90.949,227.878 85.365 C 227.245 82.974,226.439 79.742,226.088 78.181 L 225.450 75.344 224.778 76.278 M206.383 77.149 C 209.281 78.017,210.643 82.169,209.099 85.428 C 207.266 89.297,203.123 90.543,200.488 88.017 L 199.636 87.201 199.240 88.287 C 196.898 94.710,188.956 93.270,189.264 86.479 C 189.501 81.238,194.817 78.020,198.125 81.116 C 198.870 81.812,198.804 81.999,197.502 82.883 C 196.382 83.644,196.334 83.657,195.781 83.371 C 193.226 82.050,190.856 86.396,192.927 88.603 C 193.811 89.544,195.604 89.249,196.341 88.040 C 196.966 87.015,196.862 86.923,195.540 87.334 C 193.963 87.825,193.787 87.742,193.955 86.588 C 194.165 85.139,194.252 85.065,196.615 84.321 L 198.798 83.633 198.892 82.806 C 199.309 79.100,203.169 76.186,206.383 77.149 M203.341 80.480 C 201.465 81.604,201.217 84.725,202.921 85.764 C 205.203 87.156,207.867 83.950,206.559 81.387 C 205.850 79.996,204.691 79.670,203.341 80.480 M272.226 82.797 C 270.283 83.805,271.000 86.539,273.206 86.538 C 274.977 86.536,275.801 85.586,275.383 84.031 C 275.057 82.820,273.417 82.179,272.226 82.797 M287.564 108.834 C 285.325 108.894,283.431 109.005,283.355 109.081 C 283.234 109.202,283.338 116.004,283.775 136.688 L 283.890 142.125 285.221 140.438 C 290.571 133.650,295.771 124.522,299.253 115.807 C 300.222 113.380,301.731 109.130,301.731 108.825 C 301.731 108.645,294.514 108.649,287.564 108.834 M112.686 164.760 C 118.927 171.927,130.599 178.673,142.875 182.209 C 174.062 191.192,224.463 184.316,254.135 167.030 L 255.288 166.358 246.827 166.354 C 227.415 166.345,155.508 165.640,147.308 165.378 C 140.067 165.146,130.842 164.724,122.117 164.225 C 118.469 164.017,114.676 163.846,113.687 163.846 L 111.890 163.846 112.686 164.760 " stroke="none" fill="#e7eeee" fill-rule="evenodd"></path><path id="path2" d="M176.438 65.514 C 175.568 67.130,173.239 68.339,170.962 68.356 C 169.290 68.369,169.085 68.791,169.716 70.916 C 170.495 73.540,172.512 73.277,174.073 70.349 C 174.853 68.886,175.497 68.463,176.950 68.462 C 179.042 68.461,179.382 67.420,177.856 65.686 C 176.924 64.627,176.916 64.626,176.438 65.514 M281.154 66.135 L 275.096 66.250 275.046 74.014 L 274.996 81.779 275.591 82.668 C 277.109 84.938,275.312 87.541,272.581 87.029 C 270.705 86.677,269.769 84.408,270.848 82.828 C 272.062 81.050,271.253 72.756,269.479 68.793 C 268.365 66.306,268.246 66.278,259.204 66.402 C 251.765 66.504,251.085 66.588,249.500 67.601 C 246.390 69.588,243.227 78.959,243.497 85.385 L 243.558 86.827 243.909 84.231 C 245.534 72.228,248.755 66.240,252.915 67.486 C 257.368 68.821,259.294 78.013,259.587 99.327 L 259.712 108.365 262.404 108.317 C 263.885 108.290,268.947 108.129,273.654 107.960 C 278.924 107.770,289.427 107.615,300.994 107.556 L 319.776 107.459 319.887 107.019 C 320.041 106.406,319.698 100.699,319.130 94.433 C 317.709 78.747,314.079 68.333,309.519 66.865 C 307.630 66.257,293.641 65.897,281.154 66.135 M258.342 72.727 C 259.755 77.123,260.464 80.713,260.957 85.962 C 261.244 89.017,261.422 98.770,261.208 99.712 C 261.081 100.270,260.997 98.980,260.903 95.000 C 260.667 85.049,259.760 78.877,257.584 72.428 C 256.408 68.943,256.367 68.734,257.004 69.457 C 257.272 69.761,257.821 71.104,258.342 72.727 M313.430 73.365 C 315.703 78.004,317.033 83.956,317.877 93.269 C 318.093 95.649,318.320 98.072,318.382 98.654 C 318.461 99.400,318.434 99.653,318.290 99.514 C 318.030 99.262,317.835 97.804,317.115 90.721 C 316.353 83.227,315.049 78.059,312.677 73.129 C 312.157 72.047,311.731 71.051,311.732 70.917 C 311.733 70.465,312.670 71.816,313.430 73.365 M179.638 75.684 C 178.373 76.748,178.442 77.299,179.842 77.305 C 180.776 77.309,181.191 76.879,181.116 75.986 C 181.041 75.085,180.485 74.971,179.638 75.684 M178.269 96.622 C 177.899 96.759,176.612 97.364,175.409 97.968 C 172.698 99.328,170.050 100.231,168.654 100.270 C 166.404 100.333,166.264 104.452,168.462 105.930 C 171.722 108.123,182.329 101.982,181.890 98.155 C 181.824 97.574,181.154 97.214,181.154 97.760 C 181.154 98.151,180.223 99.231,179.887 99.231 C 179.517 99.231,179.546 98.970,179.999 98.226 C 180.841 96.846,179.935 96.006,178.269 96.622 M279.471 108.990 L 277.500 109.052 277.500 134.334 C 277.500 158.888,277.510 159.626,277.864 159.980 C 278.659 160.774,280.843 160.607,282.062 159.659 L 282.489 159.327 282.614 146.635 C 282.698 138.161,282.659 130.906,282.497 124.808 C 282.363 119.784,282.234 114.233,282.209 112.474 C 282.165 109.265,282.097 108.811,281.671 108.887 C 281.545 108.909,280.555 108.955,279.471 108.990 M242.657 109.535 C 242.412 109.825,239.874 112.710,237.018 115.945 C 229.038 124.981,227.014 127.735,226.456 130.313 C 225.773 133.472,232.832 130.392,241.772 123.631 C 246.540 120.024,254.718 113.007,257.297 110.309 L 257.960 109.615 256.720 109.597 C 250.994 109.514,243.690 109.269,243.426 109.151 C 243.197 109.049,242.971 109.162,242.657 109.535 M177.106 142.301 C 175.604 143.095,174.392 144.854,174.126 146.625 C 174.054 147.104,173.919 147.449,173.825 147.391 C 173.540 147.215,173.633 147.962,173.952 148.417 C 174.401 149.059,174.991 149.334,174.863 148.843 C 174.737 148.364,174.658 148.357,176.881 149.015 C 182.311 150.621,187.041 150.296,189.183 148.170 C 190.506 146.856,190.073 146.156,187.933 146.151 C 185.360 146.145,185.569 145.367,188.180 145.230 C 189.522 145.159,189.810 145.091,189.723 144.863 C 189.664 144.710,189.615 144.549,189.615 144.507 C 189.615 144.000,187.060 143.315,184.262 143.072 C 182.965 142.959,181.066 142.655,180.043 142.395 C 177.850 141.839,177.972 141.843,177.106 142.301 M132.019 151.175 C 128.510 154.120,127.887 154.805,127.885 155.716 C 127.884 156.665,129.660 157.008,131.127 156.342 C 132.124 155.889,132.308 155.873,132.308 156.234 C 132.308 156.562,131.348 157.167,130.288 157.509 L 129.519 157.757 130.096 158.004 C 131.987 158.815,136.357 157.819,139.626 155.833 C 141.234 154.855,141.228 154.815,139.303 153.948 C 138.388 153.536,136.721 152.555,135.598 151.769 C 133.050 149.982,133.376 150.036,132.019 151.175 " stroke="none" fill="#fbc373" fill-rule="evenodd"></path><path id="path3" d="M150.817 50.709 C 151.002 50.758,151.305 50.758,151.490 50.709 C 151.675 50.661,151.524 50.622,151.154 50.622 C 150.784 50.622,150.632 50.661,150.817 50.709 M170.302 62.674 L 169.739 63.365 170.389 62.747 C 170.746 62.406,170.999 62.095,170.952 62.055 C 170.904 62.015,170.612 62.294,170.302 62.674 M163.899 67.500 C 163.899 67.976,163.936 68.171,163.982 67.933 C 164.028 67.695,164.028 67.305,163.982 67.067 C 163.936 66.829,163.899 67.024,163.899 67.500 M203.522 77.270 C 201.013 78.162,199.787 79.594,199.044 82.498 L 198.725 83.745 196.529 84.442 C 194.669 85.033,194.314 85.210,194.205 85.599 C 194.072 86.075,193.991 87.692,194.101 87.692 C 194.135 87.692,194.784 87.481,195.543 87.223 C 196.985 86.733,197.105 86.783,196.642 87.679 C 195.248 90.374,192.113 89.430,192.116 86.317 C 192.119 84.041,194.358 82.283,195.889 83.355 C 196.265 83.619,197.529 83.018,198.547 82.091 C 199.147 81.545,196.597 80.011,195.079 80.004 C 189.440 79.980,187.002 89.381,192.012 91.832 C 194.884 93.237,199.404 90.565,199.421 87.452 C 199.424 86.952,199.650 87.037,200.385 87.817 C 202.880 90.463,207.060 89.327,208.957 85.488 C 211.231 80.889,207.825 75.739,203.522 77.270 M205.843 80.402 C 208.526 82.512,205.887 87.418,202.901 85.874 C 201.671 85.238,201.333 82.715,202.296 81.363 C 203.239 80.039,204.833 79.607,205.843 80.402 M82.739 102.419 C 82.422 102.568,80.703 104.805,80.817 104.920 C 80.997 105.100,96.996 105.206,101.632 105.058 L 106.437 104.904 107.195 103.800 C 107.612 103.193,107.907 102.650,107.850 102.594 C 107.707 102.450,83.037 102.279,82.739 102.419 M71.388 109.831 C 70.856 110.505,70.461 111.121,70.510 111.201 C 70.615 111.371,96.406 111.350,100.767 111.176 L 103.747 111.058 104.111 110.042 C 104.311 109.484,104.417 108.969,104.346 108.897 C 104.275 108.826,97.048 108.731,88.286 108.687 L 72.355 108.606 71.388 109.831 M88.238 115.334 C 87.785 115.868,87.115 117.110,87.115 117.415 C 87.115 117.827,102.337 117.831,102.679 117.419 C 102.810 117.262,102.881 116.712,102.847 116.121 L 102.788 115.096 95.657 115.046 C 89.047 114.999,88.504 115.020,88.238 115.334 " stroke="none" fill="#06acd4" fill-rule="evenodd"></path><path id="path4" d="M162.840 46.293 C 163.186 46.336,163.705 46.335,163.994 46.291 C 164.283 46.247,164.000 46.212,163.365 46.213 C 162.731 46.215,162.494 46.250,162.840 46.293 M150.240 49.755 C 150.637 49.797,151.286 49.797,151.683 49.755 C 152.079 49.714,151.755 49.680,150.962 49.680 C 150.168 49.680,149.844 49.714,150.240 49.755 M172.692 50.288 C 173.051 50.659,173.388 50.962,173.441 50.962 C 173.494 50.962,173.243 50.659,172.885 50.288 C 172.526 49.918,172.189 49.615,172.136 49.615 C 172.083 49.615,172.334 49.918,172.692 50.288 M146.250 51.069 C 136.132 52.440,125.640 57.190,118.077 63.825 C 117.020 64.752,117.049 64.785,119.107 64.997 C 120.016 65.091,120.913 65.257,121.101 65.366 C 121.503 65.600,121.652 65.586,118.077 65.663 C 115.314 65.723,113.958 66.072,111.442 67.372 C 105.268 70.563,107.442 74.522,117.212 77.877 C 120.080 78.862,120.854 79.231,120.051 79.231 C 118.594 79.231,114.106 77.868,112.161 76.835 C 110.776 76.100,110.884 76.030,110.227 78.077 C 108.947 82.062,109.097 87.784,110.593 92.043 C 112.729 98.123,115.630 101.647,123.164 107.312 C 129.538 112.105,130.472 115.416,128.697 126.923 C 125.784 145.813,134.612 155.375,155.000 155.415 C 161.778 155.428,166.034 154.485,172.814 151.468 C 176.459 149.845,176.508 149.803,175.269 149.330 C 173.544 148.671,173.251 147.685,174.033 145.164 C 174.943 142.230,177.066 140.924,179.784 141.629 C 181.734 142.134,184.074 142.320,184.556 142.009 C 185.882 141.152,188.748 134.103,189.712 129.327 C 190.506 125.399,191.416 116.152,191.092 115.309 C 191.020 115.122,190.135 115.240,187.278 115.819 C 179.784 117.338,179.080 116.886,177.132 109.310 L 176.237 105.831 175.090 106.257 C 170.157 108.089,167.325 107.261,166.540 103.756 C 166.063 101.627,167.194 100.197,170.118 99.235 C 173.755 98.039,173.590 98.627,171.962 92.666 C 169.292 82.892,169.063 83.327,178.750 79.795 C 180.987 78.980,181.250 78.836,181.250 78.432 C 181.250 78.013,181.174 77.981,180.192 77.981 C 178.711 77.981,177.763 77.367,175.408 74.882 L 173.465 72.831 172.431 73.156 C 170.107 73.887,168.846 72.485,168.846 69.170 C 168.846 68.368,168.753 67.275,168.638 66.742 C 168.363 65.458,168.618 64.717,169.840 63.248 C 170.986 61.872,171.062 62.132,168.942 60.194 C 164.429 56.069,157.626 51.766,154.386 50.986 C 153.187 50.698,148.651 50.744,146.250 51.069 M275.723 52.444 C 275.963 52.490,276.309 52.488,276.493 52.440 C 276.676 52.392,276.481 52.354,276.058 52.356 C 275.635 52.358,275.484 52.398,275.723 52.444 M152.719 52.981 C 164.929 56.083,167.963 71.386,157.729 78.254 C 149.483 83.788,138.722 80.619,135.110 71.592 C 131.128 61.644,141.920 50.238,152.719 52.981 M276.010 53.017 C 276.195 53.066,276.498 53.066,276.683 53.017 C 276.868 52.969,276.716 52.929,276.346 52.929 C 275.976 52.929,275.825 52.969,276.010 53.017 M148.894 53.407 C 149.185 53.451,149.661 53.451,149.952 53.407 C 150.243 53.363,150.005 53.327,149.423 53.327 C 148.841 53.327,148.603 53.363,148.894 53.407 M169.615 59.712 C 170.297 60.399,170.898 60.962,170.950 60.962 C 171.003 60.962,170.489 60.399,169.808 59.712 C 169.126 59.024,168.526 58.462,168.473 58.462 C 168.420 58.462,168.934 59.024,169.615 59.712 M176.583 59.808 C 176.583 60.178,176.623 60.329,176.671 60.144 C 176.719 59.959,176.719 59.656,176.671 59.471 C 176.623 59.286,176.583 59.438,176.583 59.808 M274.852 64.038 C 274.852 64.409,274.892 64.560,274.940 64.375 C 274.989 64.190,274.989 63.887,274.940 63.702 C 274.892 63.517,274.852 63.668,274.852 64.038 M299.567 65.139 C 299.911 65.182,300.474 65.182,300.817 65.139 C 301.161 65.096,300.880 65.062,300.192 65.062 C 299.505 65.062,299.224 65.096,299.567 65.139 M261.971 65.334 C 262.579 65.373,263.575 65.373,264.183 65.334 C 264.791 65.296,264.293 65.265,263.077 65.265 C 261.861 65.265,261.363 65.296,261.971 65.334 M255.144 65.520 C 255.382 65.566,255.772 65.566,256.010 65.520 C 256.248 65.474,256.053 65.437,255.577 65.437 C 255.101 65.437,254.906 65.474,255.144 65.520 M274.117 69.135 C 274.117 70.933,274.146 71.694,274.181 70.827 C 274.217 69.959,274.217 68.488,274.182 67.558 C 274.146 66.627,274.117 67.337,274.117 69.135 M118.972 70.094 C 120.170 70.450,120.508 70.820,120.644 71.923 C 120.703 72.399,120.807 73.105,120.876 73.493 C 121.205 75.363,116.051 75.061,114.781 73.136 C 113.977 71.915,114.722 70.553,116.449 70.090 C 117.695 69.756,117.832 69.756,118.972 70.094 M159.702 75.625 L 158.942 76.442 159.760 75.682 C 160.520 74.975,160.665 74.808,160.520 74.808 C 160.488 74.808,160.121 75.175,159.702 75.625 M222.392 77.356 L 221.827 77.981 222.452 77.416 C 223.035 76.889,223.165 76.731,223.017 76.731 C 222.984 76.731,222.702 77.012,222.392 77.356 M274.073 80.421 L 274.038 81.515 273.317 81.591 L 272.596 81.666 273.323 81.698 C 274.180 81.737,274.282 81.566,274.181 80.264 L 274.108 79.327 274.073 80.421 M194.856 79.940 C 195.041 79.989,195.344 79.989,195.529 79.940 C 195.714 79.892,195.563 79.852,195.192 79.852 C 194.822 79.852,194.671 79.892,194.856 79.940 M219.507 80.433 L 218.942 81.058 219.567 80.493 C 219.911 80.182,220.192 79.901,220.192 79.868 C 220.192 79.719,220.034 79.850,219.507 80.433 M147.548 80.525 C 147.945 80.566,148.594 80.566,148.990 80.525 C 149.387 80.483,149.063 80.449,148.269 80.449 C 147.476 80.449,147.151 80.483,147.548 80.525 M197.500 80.637 C 197.500 80.670,197.781 80.951,198.125 81.262 L 198.750 81.827 198.185 81.202 C 197.659 80.619,197.500 80.489,197.500 80.637 M217.007 83.125 L 216.442 83.750 217.067 83.185 C 217.650 82.659,217.781 82.500,217.632 82.500 C 217.599 82.500,217.318 82.781,217.007 83.125 M242.940 84.327 C 242.941 84.856,242.978 85.049,243.023 84.757 C 243.067 84.465,243.066 84.032,243.020 83.795 C 242.974 83.559,242.938 83.798,242.940 84.327 M271.006 84.615 C 271.006 84.986,271.046 85.137,271.094 84.952 C 271.142 84.767,271.142 84.464,271.094 84.279 C 271.046 84.094,271.006 84.245,271.006 84.615 M171.202 85.481 C 171.204 85.904,171.244 86.054,171.290 85.815 C 171.336 85.576,171.334 85.230,171.286 85.046 C 171.238 84.862,171.200 85.058,171.202 85.481 M272.933 86.671 C 273.118 86.719,273.421 86.719,273.606 86.671 C 273.791 86.623,273.639 86.583,273.269 86.583 C 272.899 86.583,272.748 86.623,272.933 86.671 M203.317 89.363 C 203.502 89.412,203.805 89.412,203.990 89.363 C 204.175 89.315,204.024 89.275,203.654 89.275 C 203.284 89.275,203.132 89.315,203.317 89.363 M242.954 90.962 C 242.954 91.966,242.986 92.377,243.026 91.875 C 243.066 91.373,243.066 90.550,243.026 90.048 C 242.986 89.546,242.954 89.957,242.954 90.962 M193.608 92.444 C 193.847 92.490,194.193 92.488,194.377 92.440 C 194.561 92.392,194.365 92.354,193.942 92.356 C 193.519 92.358,193.369 92.398,193.608 92.444 M242.575 100.385 C 242.575 101.813,242.606 102.397,242.643 101.683 C 242.680 100.969,242.680 99.800,242.643 99.087 C 242.606 98.373,242.575 98.957,242.575 100.385 M199.567 98.601 C 199.911 98.643,200.474 98.643,200.817 98.601 C 201.161 98.558,200.880 98.523,200.192 98.523 C 199.505 98.523,199.224 98.558,199.567 98.601 M101.875 102.451 C 102.959 102.485,104.733 102.485,105.817 102.451 C 106.901 102.417,106.014 102.389,103.846 102.389 C 101.678 102.389,100.791 102.417,101.875 102.451 M101.000 105.143 C 101.920 105.178,103.478 105.178,104.461 105.143 C 105.445 105.108,104.692 105.080,102.788 105.079 C 100.885 105.079,100.080 105.108,101.000 105.143 M242.745 106.923 C 242.745 107.399,242.782 107.594,242.828 107.356 C 242.874 107.118,242.874 106.728,242.828 106.490 C 242.782 106.252,242.745 106.447,242.745 106.923 M100.144 108.797 C 100.911 108.833,102.166 108.833,102.933 108.797 C 103.700 108.760,103.072 108.730,101.538 108.730 C 100.005 108.730,99.377 108.760,100.144 108.797 M288.517 108.796 C 289.129 108.834,290.081 108.834,290.632 108.795 C 291.183 108.757,290.683 108.725,289.519 108.726 C 288.356 108.726,287.905 108.758,288.517 108.796 M274.652 109.179 C 276.302 109.244,276.324 109.251,276.401 109.767 C 276.472 110.246,276.477 110.241,276.460 109.712 L 276.442 109.135 274.712 109.124 L 272.981 109.113 274.652 109.179 M266.878 109.370 C 267.224 109.413,267.743 109.412,268.032 109.368 C 268.321 109.324,268.038 109.289,267.404 109.290 C 266.769 109.291,266.533 109.327,266.878 109.370 M260.721 109.559 C 260.959 109.605,261.349 109.605,261.587 109.559 C 261.825 109.513,261.630 109.475,261.154 109.475 C 260.678 109.475,260.483 109.513,260.721 109.559 M99.663 111.296 C 100.377 111.333,101.546 111.333,102.260 111.296 C 102.974 111.259,102.389 111.229,100.962 111.229 C 99.534 111.229,98.950 111.259,99.663 111.296 M255.765 113.221 L 254.135 114.904 255.817 113.273 C 256.743 112.377,257.500 111.620,257.500 111.591 C 257.500 111.451,257.279 111.658,255.765 113.221 M237.297 113.798 L 236.635 114.519 237.356 113.857 C 238.027 113.240,238.165 113.077,238.018 113.077 C 237.986 113.077,237.662 113.401,237.297 113.798 M276.242 123.173 C 276.242 127.827,276.267 129.703,276.298 127.343 C 276.329 124.982,276.328 121.174,276.298 118.881 C 276.267 116.588,276.242 118.519,276.242 123.173 M102.869 115.721 C 102.961 116.385,102.975 116.398,103.038 115.890 C 103.076 115.586,103.031 115.262,102.938 115.169 C 102.842 115.072,102.812 115.308,102.869 115.721 M283.336 117.500 C 283.336 118.399,283.370 118.767,283.410 118.317 C 283.451 117.868,283.451 117.132,283.410 116.683 C 283.370 116.233,283.336 116.601,283.336 117.500 M191.779 119.712 C 191.781 120.135,191.821 120.285,191.867 120.046 C 191.913 119.807,191.911 119.460,191.863 119.277 C 191.815 119.093,191.777 119.288,191.779 119.712 M283.534 126.346 C 283.534 127.563,283.565 128.060,283.604 127.452 C 283.642 126.844,283.642 125.849,283.604 125.240 C 283.565 124.632,283.534 125.130,283.534 126.346 M283.730 139.423 C 283.730 140.957,283.760 141.584,283.797 140.817 C 283.833 140.050,283.833 138.796,283.797 138.029 C 283.760 137.262,283.730 137.889,283.730 139.423 M123.510 137.627 C 122.705 137.952,123.651 140.015,125.306 141.546 C 126.296 142.461,128.607 143.957,128.774 143.790 C 128.872 143.693,127.868 140.422,127.396 139.301 C 126.974 138.299,124.493 137.230,123.510 137.627 M276.424 147.115 C 276.424 148.861,276.454 149.575,276.489 148.702 C 276.525 147.829,276.525 146.401,276.489 145.529 C 276.454 144.656,276.424 145.370,276.424 147.115 M190.814 146.346 C 190.814 146.716,190.853 146.868,190.902 146.683 C 190.950 146.498,190.950 146.195,190.902 146.010 C 190.853 145.825,190.814 145.976,190.814 146.346 M128.161 153.317 L 127.596 153.942 128.221 153.377 C 128.565 153.067,128.846 152.786,128.846 152.752 C 128.846 152.604,128.687 152.735,128.161 153.317 M150.625 156.671 C 150.810 156.719,151.113 156.719,151.298 156.671 C 151.483 156.623,151.332 156.583,150.962 156.583 C 150.591 156.583,150.440 156.623,150.625 156.671 M119.862 157.257 C 120.367 157.297,121.146 157.296,121.592 157.256 C 122.039 157.216,121.625 157.183,120.673 157.184 C 119.721 157.184,119.356 157.217,119.862 157.257 M140.337 157.256 C 140.786 157.297,141.522 157.297,141.971 157.256 C 142.421 157.216,142.053 157.183,141.154 157.183 C 140.255 157.183,139.887 157.216,140.337 157.256 M114.377 157.444 C 114.616 157.490,114.963 157.488,115.146 157.440 C 115.330 157.392,115.135 157.354,114.712 157.356 C 114.288 157.358,114.138 157.398,114.377 157.444 M148.708 157.449 C 149.213 157.489,149.992 157.489,150.438 157.448 C 150.885 157.408,150.471 157.375,149.519 157.376 C 148.567 157.377,148.202 157.410,148.708 157.449 M157.163 157.641 C 157.666 157.681,158.488 157.681,158.990 157.641 C 159.493 157.602,159.082 157.569,158.077 157.569 C 157.072 157.569,156.661 157.602,157.163 157.641 M166.305 157.834 C 166.863 157.873,167.729 157.873,168.228 157.833 C 168.726 157.794,168.269 157.762,167.212 157.763 C 166.154 157.763,165.746 157.795,166.305 157.834 M176.401 158.027 C 177.013 158.065,177.965 158.065,178.517 158.026 C 179.068 157.987,178.567 157.956,177.404 157.957 C 176.240 157.957,175.789 157.989,176.401 158.027 M236.403 158.028 C 237.228 158.064,238.526 158.064,239.288 158.027 C 240.050 157.991,239.375 157.961,237.788 157.962 C 236.202 157.962,235.578 157.992,236.403 158.028 M188.518 158.220 C 189.343 158.256,190.641 158.256,191.403 158.220 C 192.165 158.183,191.490 158.154,189.904 158.154 C 188.317 158.154,187.694 158.184,188.518 158.220 M225.823 158.219 C 226.329 158.258,227.108 158.258,227.554 158.217 C 228.000 158.177,227.587 158.145,226.635 158.145 C 225.683 158.146,225.318 158.179,225.823 158.219 M112.255 163.793 C 112.597 163.835,113.202 163.836,113.601 163.794 C 114.000 163.753,113.721 163.718,112.981 163.717 C 112.240 163.716,111.914 163.750,112.255 163.793 M117.260 163.982 C 117.498 164.028,117.887 164.028,118.125 163.982 C 118.363 163.936,118.168 163.899,117.692 163.899 C 117.216 163.899,117.022 163.936,117.260 163.982 M120.916 164.174 C 121.155 164.220,121.501 164.219,121.685 164.171 C 121.869 164.122,121.673 164.085,121.250 164.087 C 120.827 164.089,120.676 164.128,120.916 164.174 M124.185 164.367 C 124.424 164.413,124.770 164.411,124.954 164.363 C 125.138 164.315,124.942 164.277,124.519 164.279 C 124.096 164.281,123.946 164.321,124.185 164.367 M127.646 164.559 C 127.886 164.605,128.232 164.603,128.416 164.555 C 128.600 164.507,128.404 164.469,127.981 164.472 C 127.558 164.474,127.407 164.513,127.646 164.559 M131.298 164.751 C 131.536 164.797,131.925 164.797,132.163 164.751 C 132.401 164.705,132.207 164.668,131.731 164.668 C 131.255 164.668,131.060 164.705,131.298 164.751 M135.435 164.946 C 135.728 164.990,136.160 164.989,136.397 164.943 C 136.633 164.897,136.394 164.861,135.865 164.863 C 135.337 164.864,135.143 164.901,135.435 164.946 M139.858 165.138 C 140.151 165.182,140.583 165.181,140.820 165.135 C 141.056 165.090,140.817 165.054,140.288 165.055 C 139.760 165.056,139.566 165.094,139.858 165.138 M144.955 165.332 C 145.301 165.374,145.820 165.374,146.109 165.330 C 146.398 165.286,146.115 165.251,145.481 165.252 C 144.846 165.253,144.610 165.289,144.955 165.332 M151.779 165.526 C 152.281 165.566,153.103 165.566,153.606 165.526 C 154.108 165.486,153.697 165.454,152.692 165.454 C 151.688 165.454,151.276 165.486,151.779 165.526 M163.692 165.720 C 164.612 165.755,166.170 165.755,167.154 165.720 C 168.137 165.685,167.385 165.657,165.481 165.656 C 163.577 165.656,162.772 165.685,163.692 165.720 M182.260 165.913 C 183.344 165.947,185.118 165.947,186.202 165.913 C 187.286 165.878,186.399 165.850,184.231 165.850 C 182.063 165.850,181.175 165.878,182.260 165.913 M208.125 166.105 C 209.050 166.140,210.565 166.140,211.490 166.105 C 212.416 166.069,211.659 166.041,209.808 166.041 C 207.957 166.041,207.200 166.069,208.125 166.105 M235.240 166.298 C 238.916 166.327,244.930 166.327,248.606 166.298 C 252.281 166.269,249.274 166.245,241.923 166.245 C 234.572 166.245,231.565 166.269,235.240 166.298 " stroke="none" fill="#accbfb" fill-rule="evenodd"></path></g></svg>